<svg xmlns="http://www.w3.org/2000/svg" xmlns:xlink="http://www.w3.org/1999/xlink" aria-hidden="true" role="img" class="iconify iconify--logos" width="31.88" height="32" preserveAspectRatio="xMidYMid meet" viewBox="0 0 256 257"><defs><linearGradient id="IconifyId1813088fe1fbc01fb466" x1="-.828%" x2="57.636%" y1="7.652%" y2="78.411%"><stop offset="0%" stop-color="#41D1FF"></stop><stop offset="100%" stop-color="#BD34FE"></stop></linearGradient><linearGradient id="IconifyId1813088fe1fbc01fb467" x1="43.376%" x2="50.316%" y1="2.242%" y2="89.03%"><stop offset="0%" stop-color="#FFEA83"></stop><stop offset="8.333%" stop-color="#FFDD35"></stop><stop offset="100%" stop-color="#FFA800"></stop></linearGradient></defs><path fill="url(#IconifyId1813088fe1fbc01fb466)" d="M255.153 37.938L134.897 252.976c-2.483 4.44-8.862 4.466-11.382.048L.875 37.958c-2.746-4.814-1.571-10.952 2.633-14.25l28.576-23.765c3.026-2.48 7.125-2.846 10.525-1.01l111.858 46.512a6.537 6.537 0 0 0 2.936.675l111.858-46.512c3.4-1.836 7.499-1.47 10.525 1.01l28.576 23.765c4.204 3.298 5.38 9.435 2.633 14.25Z"></path><path fill="url(#IconifyId1813088fe1fbc01fb467)" d="M185.432.063L96.44 17.501a3.268 3.268 0 0 0-1.885.61l-86.014 36.17c-2.398.998-3.646 3.673-2.774 6.017l18.815 52.892c.873 2.345 3.456 3.973 6.017 3.972l103.379-.217c2.562 0 5.144-1.627 6.017-3.972l18.815-52.892c.872-2.344-.376-5.02-2.774-6.017L187.317.673a3.268 3.268 0 0 0-1.885-.61Z"></path></svg>
